<svg xmlns="http://www.w3.org/2000/svg" width="117.283" height="27" viewBox="0 0 117.283 27">
  <g id="Group_6" data-name="Group 6" transform="translate(-111.78 -124.05)">
    <path id="Path_25" data-name="Path 25" d="M599.09,234.243V223.9h4.64v9.881c0,2.553,1.128,3.714,2.951,3.714,1.923,0,3.315-1.525,3.315-4.575V223.9h4.641v16.841H610.3v-2.122h-.067a5.991,5.991,0,0,1-4.939,2.52C601.51,241.138,599.09,238.818,599.09,234.243Z" transform="translate(-439.683 -90.091)"/>
    <path id="Path_26" data-name="Path 26" d="M497.67,172.793a6.1,6.1,0,0,1-2.221.406c-3.779,0-6.2-2.32-6.2-6.9V148.6h4.641v16.7c0,2.553.772,3.3,2.951,3.3a2.345,2.345,0,0,0,.828-.178Z" transform="translate(-340.578 -22.151)"/>
    <path id="Path_27" data-name="Path 27" d="M821.943,226.725v10.343H817.3v-9.879c0-2.553-1.027-3.714-2.651-3.714-1.989,0-3.083,1.759-3.083,4.939v8.652h-4.641V226.891c0-2.155-.928-3.415-2.653-3.415-2.022,0-3.084,1.79-3.084,4.94v8.652h-4.64V220.228h4.376v1.922h.066a5.437,5.437,0,0,1,4.675-2.32,5.171,5.171,0,0,1,5.006,2.884,6.026,6.026,0,0,1,5.375-2.884C819.659,219.83,821.943,222.15,821.943,226.725Z" transform="translate(-617.844 -86.419)"/>
    <path id="Path_28" data-name="Path 28" d="M1095.481,225.144v6.1a17.7,17.7,0,0,0,.463,4.608h-4.177a9.592,9.592,0,0,1-.233-2.255h-.067a6.328,6.328,0,0,1-5.473,2.653c-3.58,0-5.735-2.188-5.735-5.106,0-2.751,1.661-4.607,6.532-5.371,1.26-.2,3.149-.4,4.209-.464v-.6c0-2.122-1.127-2.984-2.751-2.984a2.5,2.5,0,0,0-2.785,2.553h-4.508c.165-3.215,2.486-5.8,7.293-5.8C1093.022,218.48,1095.481,220.735,1095.481,225.144ZM1091,228.127c-.994.065-2.387.2-3.382.365-1.922.331-2.718.961-2.718,2.32,0,1.26.862,2.122,2.486,2.122a3.793,3.793,0,0,0,2.652-.962c.8-.8.961-1.691.961-3.215Z" transform="translate(-873.826 -85.201)"/>
    <path id="Path_29" data-name="Path 29" d="M139.97,136.862h-6.626l4.685-4.684a2.563,2.563,0,0,0,0-3.624h0a2.563,2.563,0,0,0-3.624,0l-4.685,4.685v-6.626a2.562,2.562,0,0,0-2.562-2.563h0a2.563,2.563,0,0,0-2.563,2.563v6.626l-4.681-4.685a2.563,2.563,0,0,0-3.624,0h0a2.563,2.563,0,0,0,0,3.624l4.685,4.684h-6.632a2.563,2.563,0,0,0-2.563,2.563h0a2.563,2.563,0,0,0,2.563,2.563h6.626l2.561-2.563,1.8-1.794a2.583,2.583,0,0,1,3.654,0l1.8,1.8,2.563,2.563h6.626a2.563,2.563,0,0,0,2.563-2.563h0A2.563,2.563,0,0,0,139.97,136.862Z" transform="translate(0 0)" fill="#ffc24d"/>
    <path id="Path_30" data-name="Path 30" d="M172.668,265.052,165.42,257.8l-1.8-1.794a2.583,2.583,0,0,0-3.654,0l-1.8,1.794-7.248,7.248a2.565,2.565,0,1,0,3.632,3.624l5.42-5.42a2.583,2.583,0,0,1,3.654,0l5.42,5.42a2.563,2.563,0,1,0,3.624-3.624Z" transform="translate(-34.64 -118.38)" fill="#f60"/>
    <path id="Path_31" data-name="Path 31" d="M1261.2,224.213v2.265h-.334v-2.265H1260v-.293h2.083v.293Z" transform="translate(-1035.999 -90.109)"/>
    <path id="Path_32" data-name="Path 32" d="M1286.773,226.461v-1.3c0-.324,0-.651.007-.977h-.007c-.112.327-.23.651-.349.977l-.475,1.3h-.381l-.475-1.3c-.118-.327-.238-.651-.349-.977h-.007c0,.327.007.655.007.977v1.3h-.323V223.9h.533l.463,1.263c.115.324.231.658.338.977h.008c.108-.323.223-.658.338-.977l.46-1.263h.536v2.561Z" transform="translate(-1058.033 -90.091)"/>
  </g>
</svg>
